PathFileType	4	(X/Y/Z)	SUBJ51_3_walk_RCNL2025.trc
DataRate	CameraRate	NumFrames	NumMarkers	Units	OrigDataRate	OrigDataStartFrame	OrigNumFrames
100	100	4	25	mm	100	138	275
Frame#	Time	R_Shoulder			L_Shoulder			C7			J_Notch			R_Elbow			L_Elbow			R_Wrist			L_Wrist			R_Asis			L_Asis			Sacral			Thoracic			Sternum			R_Thigh_Lateral			R_Knee_Lateral			R_Shank_Lateral			R_Ankle_Lateral			R_Heel			R_Toe			L_Thigh_Lateral			L_Knee_Lateral			L_Shank_Lateral			L_Ankle_Lateral			L_Heel			L_Toe		
		X1	Y1	Z1	X2	Y2	Z2	X3	Y3	Z3	X4	Y4	Z4	X5	Y5	Z5	X6	Y6	Z6	X7	Y7	Z7	X8	Y8	Z8	X9	Y9	Z9	X10	Y10	Z10	X11	Y11	Z11	X12	Y12	Z12	X13	Y13	Z13	X14	Y14	Z14	X15	Y15	Z15	X16	Y16	Z16	X17	Y17	Z17	X18	Y18	Z18	X19	Y19	Z19	X20	Y20	Z20	X21	Y21	Z21	X22	Y22	Z22	X23	Y23	Z23	X24	Y24	Z24	X25	Y25	Z25
138	1.37000000	-536.291687	1464.694214	431.272003	-568.035950	1470.741333	-27.824535	-623.026917	1587.678833	198.801529	-488.242126	1462.683960	197.161545	-577.094421	1179.021851	558.112366	-725.302490	1178.788574	-92.485306	-394.380997	981.204651	555.225922	-760.758636	918.437042	-69.510782	-519.631226	1027.463379	347.455963	-487.675110	1003.287720	113.457169	-716.414246	1047.978394	191.245850	-734.741821	1370.054810	200.213470	-442.732483	1235.927612	200.580109	-642.337769	631.445007	405.335693	-694.860352	515.135742	352.522217	-775.658325	306.409515	402.080719	-852.015503	88.412216	275.338013	-903.427917	90.968483	217.994476	-699.517334	43.460819	252.783981	-444.613586	631.338623	-15.622869	-403.672333	524.734436	33.801048	-370.698761	339.918579	-15.337919	-275.879242	82.719597	77.792427	-320.386536	70.290916	140.448471	-121.619713	113.610390	81.439095
139	1.38000000	-521.373657	1463.195679	429.852997	-552.707214	1468.115479	-29.232841	-608.141541	1585.494751	197.120911	-473.249878	1460.390259	196.005753	-560.359131	1178.446167	558.440125	-713.183594	1177.555908	-92.805511	-374.093597	984.078552	556.551697	-752.168365	917.796692	-69.303198	-506.346680	1025.922485	347.512909	-472.439819	1000.926208	113.888046	-701.670898	1045.824707	189.467834	-719.915283	1368.093506	198.607925	-428.155792	1233.563721	200.229797	-632.308411	630.345398	405.124786	-685.786133	514.411377	352.209106	-770.303650	307.219543	402.026917	-850.918030	90.591759	275.805542	-902.392517	93.913261	218.467010	-699.408936	43.293941	252.687393	-432.136719	627.565918	-16.016958	-388.790466	522.261475	33.996723	-348.491730	338.484528	-15.145825	-244.677551	84.356804	78.595047	-289.607513	70.236351	140.747238	-91.208824	120.627876	84.541832
140	1.39000000	-506.427032	1461.802490	428.374756	-537.278564	1465.526367	-30.700323	-593.187622	1583.389038	195.329422	-458.191193	1458.208496	194.795502	-543.932068	1177.924683	558.556824	-700.596252	1176.258667	-93.309181	-354.444122	986.825775	557.690613	-742.801117	917.054962	-69.296911	-492.728546	1024.375977	347.431763	-457.113586	998.663269	114.319710	-686.735046	1043.883301	187.746826	-704.971924	1366.155151	196.965958	-413.446411	1231.368286	199.856628	-621.894592	629.300354	404.944122	-676.277039	513.707458	351.966888	-764.476624	308.136017	402.134918	-849.654297	93.037781	276.578522	-901.239868	97.220062	219.336227	-699.279053	43.174824	252.706833	-418.446259	624.534851	-16.424908	-373.547791	520.117065	34.175129	-327.628662	337.220215	-14.716696	-216.568420	85.868195	79.797714	-261.786469	70.408630	141.549713	-63.821621	126.458328	87.612999
141	1.40000000	-491.455048	1460.545532	426.841583	-521.772400	1463.007202	-32.225754	-578.163208	1581.378174	193.436691	-443.055786	1456.168213	193.520584	-527.821594	1177.479736	558.458069	-687.503052	1174.886963	-93.995026	-335.451523	989.429779	558.645355	-732.629761	916.193634	-69.505663	-478.740570	1022.780701	347.203278	-441.662811	996.536133	114.681709	-671.595154	1042.150879	186.077805	-689.901917	1364.257568	195.300430	-398.572205	1229.355713	199.446533	-611.030945	628.300171	404.770233	-666.303101	513.023071	351.773773	-758.162476	309.164062	402.396332	-848.207092	95.759682	277.607330	-899.933105	100.913620	220.583557	-699.092224	43.117535	252.875183	-403.278503	622.390137	-16.715906	-357.893005	518.300476	34.384037	-308.137421	335.989441	-14.037644	-191.725952	86.932854	81.328033	-237.147964	70.527885	142.783218	-39.555061	130.695190	90.564270
